HIERARCHY
ROOT Hips
{
	OFFSET	0.00	0.00	0.00
	CHANNELS 6 Xposition Yposition Zposition Zrotation Xrotation Yrotation
	JOINT LeftHip
	{
		OFFSET	 3.430000	 0.000000	 0.000000
		CHANNELS 3 Zrotation Xrotation Yrotation
		JOINT LeftKnee
		{
			OFFSET	 0.000000	-18.469999	 0.000000
			CHANNELS 3 Zrotation Xrotation Yrotation
			JOINT LeftAnkle
			{
				OFFSET	 0.000000	-17.950001	 0.000000
				CHANNELS 3 Zrotation Xrotation Yrotation
				End Site 
				{
					OFFSET	 0.000000	-3.119996	 0.000000
				}
			}
		}
	}
	JOINT RightHip
	{
		OFFSET	-3.430000	 0.000000	 0.000000
		CHANNELS 3 Zrotation Xrotation Yrotation
		JOINT RightKnee
		{
			OFFSET	 0.000000	-18.809999	 0.000000
			CHANNELS 3 Zrotation Xrotation Yrotation
			JOINT RightAnkle
			{
				OFFSET	 0.000000	-17.570000	 0.000000
				CHANNELS 3 Zrotation Xrotation Yrotation
				End Site 
				{
					OFFSET	 0.000000	-3.250000	 0.000000
				}
			}
		}
	}
	JOINT Chest
	{
		OFFSET	 0.000000	 4.570000	 0.000000
		CHANNELS 3 Zrotation Xrotation Yrotation
		JOINT LeftCollar
		{
			OFFSET	 1.060000	 15.330000	 1.760000
			CHANNELS 3 Zrotation Xrotation Yrotation
			JOINT LeftShoulder
			{
				OFFSET	 5.810000	 0.000000	 0.000000
				CHANNELS 3 Zrotation Xrotation Yrotation
				JOINT LeftElbow
				{
					OFFSET	 0.000000	-12.080000	 0.000000
					CHANNELS 3 Zrotation Xrotation Yrotation
					JOINT LeftWrist
					{
						OFFSET	 0.000000	-9.820000	 0.000000
						CHANNELS 3 Zrotation Xrotation Yrotation
						End Site 
						{
							OFFSET	 0.000000	-7.369996	 0.000000
						}
					}
				}
			}
		}
		JOINT RightCollar
		{
			OFFSET	-1.060000	 15.330000	 1.760000
			CHANNELS 3 Zrotation Xrotation Yrotation
			JOINT RightShoulder
			{
				OFFSET	-6.060000	 0.000000	 0.000000
				CHANNELS 3 Zrotation Xrotation Yrotation
				JOINT RightElbow
				{
					OFFSET	 0.000000	-11.900000	 0.000000
					CHANNELS 3 Zrotation Xrotation Yrotation
					JOINT RightWrist
					{
						OFFSET	 0.000000	-9.520000	 0.000000
						CHANNELS 3 Zrotation Xrotation Yrotation
						End Site 
						{
							OFFSET	 0.000000	-7.140012	 0.000000
						}
					}
				}
			}
		}
		JOINT Neck
		{
			OFFSET	 0.000000	 17.620001	 0.000000
			CHANNELS 3 Zrotation Xrotation Yrotation
			JOINT Head
			{
				OFFSET	 0.000000	 5.190000	 0.000000
				CHANNELS 3 Zrotation Xrotation Yrotation
				End Site 
				{
					OFFSET	 0.000000	 4.140008	 0.000000
				}
			}
		}
	}
}

MOTION
Frames: 16
Frame Time: 0.033333
-43.7081 2.1754 -44.4696 1.38087 3.03718 68.2963 8.74136 -3.8237 9.64868 3.64014 2.45243 -0.998715 -21.2913 6.45912 -1.68681 -7.84212 11.7711 -27.872 -4.8404 -1.30081 7.48974 9.21747 -13.0201 -6.13162 1.82203 1.42934 4.51971 0 0 0 13.8804 4.91429 5.38897 -80.4623 -43.4992 -58.2074 41.1297 -29.4478 -5.69161 0 0 0 -15.6124 -12.4696 -4.7289 59.8727 -57.3923 47.6324 -37.4186 -34.6196 21.8731 0 0 0 2.32653 3.8355 20.0869 
-43.7239 2.1692 -44.4494 1.34655 3.04575 68.3868 8.76498 -3.90161 9.64727 3.65689 2.4647 -1.03225 -21.3204 6.48809 -1.72344 -7.76311 11.8193 -27.9122 -4.81985 -1.4296 7.49065 9.16077 -12.9825 -6.21579 1.83143 1.42923 4.52781 0 0 0 13.9814 4.82712 5.45742 -80.3911 -43.5593 -58.1511 40.9324 -29.4074 -5.82059 0 0 0 -15.5314 -12.4548 -4.69544 59.8073 -57.3611 47.5559 -37.6954 -34.6542 21.6911 0 0 0 2.3033 3.75677 20.0901 
-43.7344 2.171 -44.433 1.31205 3.06682 68.462 8.76978 -3.97186 9.63446 3.668 2.47278 -1.05448 -21.3359 6.50706 -1.75773 -7.71882 11.8388 -27.9534 -4.80074 -1.50739 7.50121 9.1181 -12.9625 -6.28365 1.83398 1.42495 4.5232 0 0 0 14.0673 4.77355 5.53375 -80.3192 -43.585 -58.0952 40.7967 -29.3941 -5.90613 0 0 0 -15.4615 -12.4372 -4.6772 59.7781 -57.3334 47.5315 -37.8929 -34.6699 21.548 0 0 0 2.2814 3.69439 20.0937 
-43.7445 2.1672 -44.4188 1.28979 3.07768 68.5244 8.77557 -4.0198 9.61608 3.67656 2.47307 -1.0697 -21.3511 6.5263 -1.77239 -7.6817 11.8556 -27.9806 -4.78637 -1.58303 7.50528 9.0796 -12.9358 -6.34003 1.83896 1.42047 4.52239 0 0 0 14.1204 4.71782 5.6191 -80.245 -43.5895 -58.0403 40.6679 -29.3678 -5.98273 0 0 0 -15.4002 -12.4296 -4.67143 59.7238 -57.3159 47.4809 -38.0208 -34.6922 21.4521 0 0 0 2.26165 3.63223 20.0995 
-43.7646 2.1622 -44.3862 1.23971 3.09062 68.6727 8.80504 -4.14977 9.58396 3.70536 2.48646 -1.07771 -21.3848 6.58899 -1.85143 -7.58191 11.9038 -28.0572 -4.76093 -1.70812 7.53707 9.00617 -12.9141 -6.47834 1.85355 1.42516 4.5161 0 0 0 14.2371 4.61355 5.70304 -80.1446 -43.6336 -57.9618 40.4555 -29.3233 -6.12689 0 0 0 -15.2633 -12.4428 -4.58123 59.5708 -57.2548 47.3264 -38.4974 -34.7642 21.1609 0 0 0 2.22799 3.50637 20.1227 
-43.7746 2.1597 -44.3635 1.19603 3.11546 68.7672 8.81697 -4.23832 9.53692 3.71324 2.49435 -1.09213 -21.4084 6.60752 -1.8663 -7.51898 11.9352 -28.12 -4.75674 -1.79338 7.58474 8.96338 -12.9199 -6.58851 1.87156 1.41419 4.52208 0 0 0 14.3336 4.55185 5.81621 -80.0495 -43.6803 -57.881 40.2487 -29.2791 -6.25798 0 0 0 -15.1792 -12.4261 -4.60346 59.4692 -57.2231 47.2294 -38.6856 -34.7843 20.9921 0 0 0 2.18805 3.40454 20.1489 
-43.7871 2.1521 -44.346 1.16506 3.13477 68.8439 8.81227 -4.30406 9.49392 3.72009 2.50594 -1.09755 -21.4167 6.61066 -1.88182 -7.46912 11.9725 -28.168 -4.74764 -1.91049 7.59695 8.93027 -12.8837 -6.65312 1.8935 1.39543 4.52805 0 0 0 14.4031 4.51202 5.94238 -79.9397 -43.7168 -57.7952 40.0521 -29.2315 -6.36178 0 0 0 -15.1049 -12.4205 -4.65355 59.3907 -57.1964 47.1622 -38.7704 -34.7624 20.8959 0 0 0 2.15839 3.31691 20.1663 
-43.7922 2.1471 -44.3334 1.1409 3.15566 68.9008 8.80101 -4.34275 9.44496 3.72187 2.50643 -1.10586 -21.4168 6.60128 -1.87816 -7.44581 12.0081 -28.2444 -4.73385 -2.00109 7.63948 8.91112 -12.8626 -6.69145 1.92925 1.374 4.5302 0 0 0 14.4238 4.49532 6.05038 -79.8609 -43.6882 -57.7083 39.9374 -29.1897 -6.43776 0 0 0 -15.0792 -12.4219 -4.72434 59.315 -57.1916 47.0916 -38.7504 -34.7267 20.8638 0 0 0 2.12369 3.2511 20.1791 
-43.7896 2.1471 -44.3258 1.1205 3.18422 68.9366 8.76642 -4.37818 9.38935 3.72026 2.50574 -1.10135 -21.4014 6.58715 -1.86139 -7.45391 12.0115 -28.3384 -4.75434 -2.00155 7.71123 8.93772 -12.8958 -6.70784 1.95229 1.33623 4.52373 0 0 0 14.4115 4.52047 6.09944 -79.8028 -43.6703 -57.6506 39.872 -29.15 -6.49053 0 0 0 -15.0686 -12.4229 -4.7856 59.2372 -57.1869 47.017 -38.7181 -34.693 20.8553 0 0 0 2.09671 3.21418 20.1935 
-43.7896 2.1396 -44.3183 1.11135 3.19862 68.9666 8.73977 -4.38723 9.3366 3.71847 2.50104 -1.09454 -21.3886 6.56844 -1.84028 -7.4553 12.029 -28.4306 -4.78101 -1.99865 7.77936 8.97143 -12.9349 -6.71361 1.99202 1.31054 4.50658 0 0 0 14.3699 4.53434 6.14059 -79.7506 -43.6531 -57.5973 39.8031 -29.1061 -6.54586 0 0 0 -15.0766 -12.4248 -4.84975 59.1727 -57.1872 46.9476 -38.668 -34.667 20.8656 0 0 0 2.06852 3.17554 20.2234 
-43.7821 2.1346 -44.3183 1.10137 3.21784 68.9833 8.69882 -4.38975 9.28488 3.71715 2.50074 -1.09434 -21.365 6.52855 -1.81387 -7.47831 12.0302 -28.5326 -4.80663 -1.95404 7.84759 9.02129 -12.9883 -6.69042 2.0327 1.28853 4.49124 0 0 0 14.3334 4.55625 6.13657 -79.7158 -43.6566 -57.5509 39.7735 -29.0813 -6.58829 0 0 0 -15.1016 -12.4293 -4.91661 59.1038 -57.1944 46.8668 -38.6077 -34.6452 20.8763 0 0 0 2.04461 3.14468 20.2595 
-43.7771 2.127 -44.3158 1.10018 3.24404 69.0001 8.63906 -4.36963 9.23648 3.71216 2.47284 -1.10223 -21.3268 6.50068 -1.78226 -7.5055 12.0631 -28.64 -4.82661 -1.93703 7.90444 9.06747 -13.0416 -6.65644 2.06276 1.27132 4.4727 0 0 0 14.2833 4.55662 6.12864 -79.6658 -43.6455 -57.5092 39.7428 -29.0672 -6.62394 0 0 0 -15.1391 -12.4322 -4.98815 59.0711 -57.199 46.8132 -38.5687 -34.6348 20.8759 0 0 0 2.01631 3.09632 20.2843 
-43.7696 2.122 -44.3183 1.10234 3.27263 69.0192 8.57139 -4.3256 9.17927 3.70608 2.43414 -1.11781 -21.2957 6.45635 -1.73803 -7.55652 12.075 -28.7474 -4.83792 -1.90564 7.96783 9.1102 -13.0829 -6.62192 2.08698 1.26039 4.45188 0 0 0 14.2441 4.55729 6.10849 -79.6305 -43.6465 -57.4804 39.6923 -29.0894 -6.67603 0 0 0 -15.1722 -12.4116 -5.06037 59.06 -57.2173 46.7879 -38.5244 -34.6606 20.8758 0 0 0 1.99427 3.04512 20.3063 
-43.7545 2.1195 -44.3208 1.10202 3.30527 69.0263 8.49155 -4.27492 9.10765 3.69876 2.38664 -1.12508 -21.261 6.40859 -1.67376 -7.61808 12.0804 -28.8525 -4.85181 -1.87425 8.03102 9.17089 -13.1124 -6.58564 2.10507 1.25223 4.44026 0 0 0 14.2055 4.52644 6.08776 -79.5795 -43.6432 -57.4379 39.622 -29.16 -6.74051 0 0 0 -15.2122 -12.4036 -5.13804 59.0535 -57.2303 46.7657 -38.5236 -34.7798 20.8339 0 0 0 1.96657 2.97923 20.3374 
-43.7394 2.112 -44.3208 1.10073 3.3396 69.035 8.39772 -4.21418 9.01578 3.70364 2.32297 -1.10871 -21.228 6.3661 -1.61275 -7.67459 12.0902 -28.9577 -4.87068 -1.85513 8.09817 9.22987 -13.142 -6.55305 2.11559 1.1656 4.56245 0 0 0 14.1823 4.50846 5.92861 -79.5119 -43.6364 -57.3878 39.5578 -29.2617 -6.79018 0 0 0 -15.2682 -12.2924 -5.31325 59.0341 -57.2428 46.7363 -38.549 -34.9381 20.7461 0 0 0 1.95295 2.98047 20.2335 
-43.7243 2.1019 -44.3284 1.11175 3.37205 69.0327 8.3041 -4.11859 8.91661 3.69788 2.24099 -1.09644 -21.1828 6.31785 -1.53523 -7.73173 12.1292 -29.0449 -4.87436 -1.87223 8.16679 9.27239 -13.1589 -6.52916 2.1259 1.11882 4.7013 0 0 0 14.1556 4.44897 5.76623 -79.4572 -43.6371 -57.3719 39.4975 -29.3651 -6.82284 0 0 0 -15.3278 -12.2 -5.50049 59.0418 -57.2507 46.7332 -38.5784 -35.1278 20.6351 0 0 0 1.938 2.9544 20.1282 
